<svg xmlns="http://www.w3.org/2000/svg" viewBox="0 0 64 64" role="img" aria-label="matrix of cells, some routed">
  <g fill="none" stroke="currentColor" stroke-width="3">
    <rect x="7" y="7" width="14" height="14" rx="3"/><rect x="25" y="7" width="14" height="14" rx="3"/><rect x="43" y="7" width="14" height="14" rx="3"/>
    <rect x="7" y="25" width="14" height="14" rx="3"/><rect x="25" y="25" width="14" height="14" rx="3"/><rect x="43" y="25" width="14" height="14" rx="3"/>
    <rect x="7" y="43" width="14" height="14" rx="3"/><rect x="25" y="43" width="14" height="14" rx="3"/><rect x="43" y="43" width="14" height="14" rx="3"/>
  </g>
  <g fill="currentColor">
    <rect x="25" y="7" width="14" height="14" rx="3"/>
    <rect x="7" y="25" width="14" height="14" rx="3"/>
    <rect x="43" y="43" width="14" height="14" rx="3"/>
  </g>
</svg>
