<svg xmlns="http://www.w3.org/2000/svg" viewBox="0 0 64 64" role="img" aria-label="green cells, routed ones solid with check, idle outlined">
  <g fill="none" stroke="#22c55e" stroke-width="3" opacity="0.5">
    <rect x="7" y="7" width="14" height="14" rx="3"/><rect x="43" y="7" width="14" height="14" rx="3"/>
    <rect x="25" y="25" width="14" height="14" rx="3"/><rect x="43" y="25" width="14" height="14" rx="3"/>
    <rect x="7" y="43" width="14" height="14" rx="3"/><rect x="25" y="43" width="14" height="14" rx="3"/>
  </g>
  <g fill="#22c55e">
    <rect x="25" y="7" width="14" height="14" rx="3"/>
    <rect x="7" y="25" width="14" height="14" rx="3"/>
    <rect x="43" y="43" width="14" height="14" rx="3"/>
  </g>
  <g fill="none" stroke="#fff" stroke-width="2.5" stroke-linecap="round" stroke-linejoin="round">
    <path d="M28.5 14.5l2.5 2.5 4.5-5"/>
    <path d="M10.5 32.5l2.5 2.5 4.5-5"/>
    <path d="M46.5 50.5l2.5 2.5 4.5-5"/>
  </g>
</svg>
